<svg width="683" height="683" viewBox="0 0 683 683" fill="none" xmlns="http://www.w3.org/2000/svg">
<g clip-path="url(#clip0_11_2)">
<path fill-rule="evenodd" clip-rule="evenodd" d="M154.667 48H34.6667C22.9323 48 13.3333 57.599 13.3333 69.3333V128H669.333V69.3333C669.333 57.599 659.734 48 648 48H154.667Z" fill="#87492F"/>
<path fill-rule="evenodd" clip-rule="evenodd" d="M588.047 128V554.661H669.333V128H588.047Z" fill="#B5744F"/>
<path fill-rule="evenodd" clip-rule="evenodd" d="M526.984 554.661H13.3333V613.328C13.3333 625.063 22.9323 634.661 34.6667 634.661H648C659.734 634.661 669.333 625.063 669.333 613.328V554.661H526.984Z" fill="#87492F"/>
<path fill-rule="evenodd" clip-rule="evenodd" d="M93.3333 502.005V128H13.3333V554.661H93.3333V502.005Z" fill="#B5744F"/>
<path fill-rule="evenodd" clip-rule="evenodd" d="M279.63 341.333L93.3333 180.661V502.005L279.63 341.333Z" fill="#B5744F"/>
<path fill-rule="evenodd" clip-rule="evenodd" d="M93.3333 180.661L279.63 341.333L340.688 393.99L526.984 554.661H588.047V502.005L401.75 341.333L340.688 288.672L154.391 128H93.3333V180.661Z" fill="#87492F"/>
<path fill-rule="evenodd" clip-rule="evenodd" d="M154.391 128L340.688 288.672L526.984 128H154.391Z" fill="#B5744F"/>
<path fill-rule="evenodd" clip-rule="evenodd" d="M526.984 128L340.687 288.672L401.75 341.333L588.047 180.661V128H526.984Z" fill="#87492F"/>
<path fill-rule="evenodd" clip-rule="evenodd" d="M588.047 180.661L401.75 341.333L588.047 502.005V180.661Z" fill="#B5744F"/>
<path fill-rule="evenodd" clip-rule="evenodd" d="M340.688 393.99L279.63 341.333L93.3333 502.005V554.661H154.391L340.688 393.99Z" fill="#87492F"/>
<path fill-rule="evenodd" clip-rule="evenodd" d="M340.688 393.99L154.391 554.661H526.984L340.688 393.99Z" fill="#B5744F"/>
<path d="M101.021 61.3333H101.38C108.745 61.3333 114.714 55.3646 114.714 48C114.714 40.6354 108.745 34.6667 101.38 34.6667H101.021C93.6562 34.6667 87.6875 40.6354 87.6875 48C87.6875 55.3646 93.6562 61.3333 101.021 61.3333Z" fill="black"/>
<path d="M648 34.6667H154.667C147.302 34.6667 141.333 40.6354 141.333 48C141.333 55.3646 147.302 61.3333 154.667 61.3333H648C652.339 61.3333 656 64.9948 656 69.3333V114.667H26.6667V69.3333C26.6667 64.9948 30.3281 61.3333 34.6667 61.3333H62.7135C70.0729 61.3333 76.0469 55.3646 76.0469 48C76.0469 40.6354 70.0729 34.6667 62.7135 34.6667H34.6667C15.5521 34.6667 -1.52588e-05 50.2187 -1.52588e-05 69.3333V613.328C-1.52588e-05 632.448 15.5521 647.995 34.6667 647.995H648C667.115 647.995 682.667 632.448 682.667 613.328V69.3333C682.667 50.2187 667.115 34.6667 648 34.6667ZM656 541.328H601.38V141.333H656V541.328ZM531.943 541.328L106.667 174.552V141.333H149.437L574.714 508.109V541.328H531.943ZM106.667 541.328V508.109L279.63 358.937L320.271 393.99L149.437 541.328H106.667ZM106.667 209.766L259.214 341.333L106.667 472.896V209.766ZM340.687 411.599L491.109 541.328H190.266L340.687 411.599ZM190.266 141.333H491.109L340.687 271.062L190.266 141.333ZM574.714 472.896L422.161 341.333L574.714 209.766V472.896ZM574.714 174.552L401.75 323.724L361.104 288.672L531.943 141.333H574.714V174.552ZM80 141.333V541.328H26.6667V141.333H80ZM648 621.328H34.6667C30.3281 621.328 26.6667 617.667 26.6667 613.328V567.995H656V613.328C656 617.667 652.339 621.328 648 621.328Z" fill="black"/>
<path d="M629.333 581.328H574.62C567.255 581.328 561.286 587.302 561.286 594.661C561.286 602.026 567.255 607.995 574.62 607.995H629.333C636.693 607.995 642.667 602.026 642.667 594.661C642.667 587.302 636.693 581.328 629.333 581.328Z" fill="black"/>
<path d="M536.312 581.333H535.995C528.635 581.333 522.661 587.302 522.661 594.667C522.661 602.026 528.635 608 535.995 608H536.312C543.672 608 549.646 602.026 549.646 594.667C549.646 587.302 543.677 581.333 536.312 581.333Z" fill="black"/>
</g>
<defs>
<clipPath id="clip0_11_2">
<rect width="682.667" height="682.667" fill="white"/>
</clipPath>
</defs>
</svg>
